<?xml version="1.0" encoding="UTF-8" standalone="no"?>
<svg
   width="329"
   height="74.99446651052719"
   viewBox="0 0 329 74.99446651052719"
   class="css-1j8o68f"
   version="1.1"
   id="svg20"
   sodipodi:docname="logo - Copia.svg"
   inkscape:export-filename="logo - Copia.png"
   inkscape:export-xdpi="96"
   inkscape:export-ydpi="96"
   inkscape:version="1.2 (dc2aedaf03, 2022-05-15)"
   xmlns:inkscape="http://www.inkscape.org/namespaces/inkscape"
   xmlns:sodipodi="http://sodipodi.sourceforge.net/DTD/sodipodi-0.dtd"
   xmlns="http://www.w3.org/2000/svg"
   xmlns:svg="http://www.w3.org/2000/svg">
  <sodipodi:namedview
     id="namedview22"
     pagecolor="#ffffff"
     bordercolor="#000000"
     borderopacity="0.25"
     inkscape:showpageshadow="2"
     inkscape:pageopacity="0.0"
     inkscape:pagecheckerboard="0"
     inkscape:deskcolor="#d1d1d1"
     showgrid="false"
     inkscape:zoom="3.7598784"
     inkscape:cx="156.78698"
     inkscape:cy="37.501213"
     inkscape:window-width="2560"
     inkscape:window-height="1017"
     inkscape:window-x="1358"
     inkscape:window-y="-8"
     inkscape:window-maximized="1"
     inkscape:current-layer="svg20" />
  <defs
     id="SvgjsDefs3789" />
  <path
     id="path3"
     style="fill:#800000;stroke-width:0.537271"
     d="M 54.695312 4.7949219 C 47.86875 5.0651691 17.849754 10.087466 13.789062 11.339844 C 13.642388 19.709984 5.5800781 37.496094 5.5800781 37.496094 C 5.5800781 37.496094 13.642925 55.284156 13.789062 63.654297 C 17.849754 64.906138 47.86875 69.928972 54.695312 70.199219 C 61.521337 69.928972 91.540528 64.905601 95.599609 63.654297 C 95.746284 55.284156 103.81055 37.496094 103.81055 37.496094 C 103.81055 37.495557 95.746284 19.709447 95.599609 11.339844 C 91.540528 10.087466 61.521337 5.0651691 54.695312 4.7949219 z M 43.570312 18 L 66.429688 18 L 70.845703 25.646484 L 76.025391 25.646484 C 76.493668 24.519609 77.594294 23.78125 78.820312 23.78125 C 80.490708 23.78125 81.845703 25.136245 81.845703 26.806641 C 81.845703 28.477036 80.490708 29.832031 78.820312 29.832031 C 77.599605 29.832031 76.496506 29.086408 76.027344 27.964844 L 72.185547 27.964844 L 77.183594 36.623047 L 84.179688 36.623047 C 84.647965 35.496172 85.74859 34.755859 86.974609 34.755859 C 88.64589 34.755859 90 36.110855 90 37.78125 C 90 39.451645 88.64589 40.806641 86.974609 40.806641 C 85.754787 40.806641 84.651871 40.062085 84.183594 38.941406 L 77.203125 38.941406 L 73.285156 45.726562 C 74.302265 46.018683 74.997884 46.551631 75.308594 47.638672 C 75.906997 49.731314 74.836551 50.478266 77.492188 50.636719 C 77.624969 50.644686 77.758911 50.652007 77.892578 50.658203 C 78.301546 49.424217 79.457984 48.585938 80.763672 48.585938 C 82.434067 48.585938 83.789062 49.940047 83.789062 51.611328 C 83.789062 53.281724 82.434067 54.634766 80.763672 54.634766 C 79.619092 54.634766 78.579647 53.992786 78.064453 52.976562 C 77.813938 52.969481 77.576069 52.960544 77.357422 52.947266 C 76.842228 52.916283 76.374571 52.866076 75.982422 52.789062 C 73.879158 52.376554 73.470938 51.156678 73.246094 49.287109 C 73.103575 48.103581 73.259153 48.008708 72.070312 47.828125 L 66.429688 57.597656 L 43.568359 57.597656 L 39.144531 49.933594 L 33.974609 49.933594 C 33.506332 51.060469 32.405706 51.798828 31.179688 51.798828 C 29.509292 51.798828 28.154297 50.445786 28.154297 48.775391 C 28.154297 47.104995 29.509292 45.748047 31.179688 45.748047 C 32.400395 45.748047 33.503494 46.49367 33.972656 47.615234 L 37.804688 47.615234 L 32.806641 38.958984 L 25.820312 38.958984 C 25.352035 40.08586 24.25141 40.824219 23.025391 40.824219 C 21.35411 40.824219 20 39.469224 20 37.798828 C 20 36.128433 21.35411 34.773438 23.025391 34.773438 C 24.246098 34.773438 25.348129 35.519061 25.816406 36.640625 L 32.806641 36.640625 L 36.724609 29.855469 C 36.354591 29.749243 36.054317 29.618871 35.804688 29.464844 C 33.629721 28.116666 35.290645 25.399949 33.574219 25.064453 C 33.09886 24.970621 32.592518 24.944188 32.107422 24.923828 C 31.698454 26.157814 30.542901 26.996094 29.236328 26.996094 C 27.565933 26.996094 26.210937 25.641099 26.210938 23.970703 C 26.210938 22.300308 27.565933 20.945312 29.236328 20.945312 C 30.381793 20.945312 31.420353 21.588177 31.935547 22.603516 C 32.622472 22.623876 33.344817 22.659119 34.017578 22.791016 C 36.120842 23.203525 36.529062 24.4234 36.753906 26.292969 C 36.891999 27.442859 36.734497 27.573323 37.9375 27.753906 L 43.570312 18 z M 29.236328 23.263672 C 28.84595 23.263672 28.529297 23.579439 28.529297 23.970703 C 28.529297 24.361082 28.84595 24.677734 29.236328 24.677734 C 29.626707 24.677734 29.943359 24.361082 29.943359 23.970703 C 29.943359 23.579439 29.626707 23.263672 29.236328 23.263672 z M 78.820312 26.099609 C 78.414885 26.099609 78.090266 26.446135 78.113281 26.851562 C 78.164624 27.235745 78.417541 27.513672 78.820312 27.513672 C 79.211576 27.513672 79.527344 27.197904 79.527344 26.806641 C 79.527344 26.416262 79.211576 26.099609 78.820312 26.099609 z M 86.974609 37.076172 C 86.545281 37.076172 86.234305 37.438379 86.271484 37.863281 C 86.311319 38.226218 86.612558 38.488281 86.974609 38.488281 C 87.365873 38.488281 87.681641 38.171629 87.681641 37.78125 C 87.681641 37.390871 87.365873 37.076172 86.974609 37.076172 z M 23.025391 37.091797 C 22.634127 37.091797 22.318359 37.40845 22.318359 37.798828 C 22.318359 38.189207 22.634127 38.505859 23.025391 38.505859 C 23.415769 38.505859 23.732422 38.189207 23.732422 37.798828 C 23.732422 37.403138 23.429047 37.091797 23.025391 37.091797 z M 31.179688 48.066406 C 30.788424 48.066406 30.472656 48.385012 30.472656 48.775391 C 30.472656 49.165769 30.788424 49.480469 31.179688 49.480469 C 31.570066 49.480469 31.886719 49.165769 31.886719 48.775391 C 31.886719 48.379701 31.580689 48.066406 31.179688 48.066406 z M 80.763672 50.904297 C 80.373293 50.904297 80.056641 51.220064 80.056641 51.611328 C 80.056641 52.001707 80.373293 52.316406 80.763672 52.316406 C 81.15405 52.316406 81.470703 52.001707 81.470703 51.611328 C 81.470703 51.220064 81.15405 50.904297 80.763672 50.904297 z " />
  <path
     d="m 108.7018,36.007384 v -5.37e-4 c -2.25976,-4.973521 -8.15041,-19.324574 -8.26592,-25.91743 L 100.39021,7.6244167 98.255634,6.9646476 C 94.157866,5.7015228 62.192374,0.29603648 54.804894,0.00537271 L 54.696365,0 54.583001,0.00537271 C 47.187462,0.29657375 15.228954,5.7020601 11.135485,6.9657221 L 8.9976821,7.624954 8.9541632,10.089955 c -0.112827,6.563843 -6.0040066,20.932626 -8.26430688,25.91528 l -0.67749908,1.492539 5.3727e-4,0.0011 L 0,37.527862 0.08811249,37.663791 0.68985632,38.98709 C 2.9501566,43.970282 8.8413362,58.340139 8.9547004,64.903445 l 0.043519,2.465538 2.1372656,0.659769 c 4.094544,1.263125 36.053052,6.668074 43.443218,6.959275 l 0.117662,0.0064 0.103156,-0.0064 c 7.394465,-0.290664 39.35942,-5.69615 43.456113,-6.959812 l 2.134046,-0.659232 0.0457,-2.465538 c 0.11498,-6.590169 6.00562,-20.942834 8.26592,-25.917966 L 109.375,37.4967 Z m -3.09844,4.90851 c -2.30006,5.446319 -7.103267,17.557488 -7.218243,23.946719 l -0.01236,0.829546 -0.680723,0.210073 c -4.044041,1.245933 -35.647412,6.585335 -42.961824,6.875461 l -0.02633,0.0011 -0.0403,-5.38e-4 C 47.344345,72.487567 15.742049,67.148165 11.698008,65.90277 l -0.68126,-0.210611 -0.01397,-0.830084 C 10.887265,58.264921 5.7654581,45.556306 3.5685558,40.398502 A 129.54148,129.54148 0 0 0 2.5273241,38.009794 L 2.2941484,37.4967 2.5262496,36.985755 c 0.037609,-0.0822 0.4507706,-1.002011 1.041769,-2.39032 C 5.7649208,29.437631 10.886728,16.728479 11.002241,10.131862 L 11.01621,9.3017777 11.69747,9.0917046 C 15.745272,7.8452352 47.348643,2.5058332 54.663592,2.2157068 l 0.01666,-0.00161 0.04459,0.00161 C 62.03979,2.5058332 93.644773,7.844698 97.692038,9.0911673 l 0.680723,0.2106104 0.01236,0.8306213 c 0.114439,6.387081 4.918179,18.498788 7.218239,23.945644 h -0.004 l 0.22081,0.517929 a 125.16057,125.16057 0 0 0 1.04124,2.388171 l 0.23371,0.513094 -0.23371,0.51202 c -0.0355,0.07629 -0.44164,0.983743 -1.04124,2.389782 l -0.21813,0.51793 h 10e-4 z"
     id="path5"
     style="fill:#800000;stroke-width:0.537271" />
  <g
     id="SvgjsG3791"
     featurekey="symbolFeature-0"
     transform="matrix(0.08852131248159151,0,0,0.08852131248159151,17.526709585599725,0.32494969888798764)"
     fill="#2e2b2b"
     style="fill:#cccccc">
    <defs
       id="defs10" />
  </g>
  <g
     id="SvgjsG3792"
     featurekey="nameFeature-0"
     transform="matrix(1.22040513815591,0,0,1.22040513815591,124.60654336482918,2.06370506999974)"
     fill="#77a29b"
     style="fill:#501616">
    <path
       d="M3.6 37.76 l0 -23.28 c0 -1.4 1.08 -2.48 2.48 -2.48 l10 0 c3.52 0 6.28 1.04 8.08 2.8 c1.48 1.52 2.32 3.6 2.32 6.04 l0 0.08 c0 4.48 -2.6 7.2 -6.36 8.36 l5.36 6.76 c0.48 0.6 0.8 1.12 0.8 1.88 c0 1.36 -1.16 2.28 -2.36 2.28 c-1.12 0 -1.84 -0.52 -2.4 -1.28 l-6.8 -8.68 l-6.2 0 l0 7.52 c0 1.36 -1.08 2.44 -2.44 2.44 c-1.4 0 -2.48 -1.08 -2.48 -2.44 z M8.52 25.880000000000003 l7.2 0 c3.52 0 5.76 -1.84 5.76 -4.68 l0 -0.08 c0 -3 -2.16 -4.64 -5.8 -4.64 l-7.16 0 l0 9.4 z M35.6 27.96 l10.84 0 c-0.32 -3.12 -2.16 -5.56 -5.36 -5.56 c-2.96 0 -5.04 2.28 -5.48 5.56 z M49.24 37.68 c-1.92 1.72 -4.32 2.8 -7.6 2.8 c-6.12 0 -10.84 -4.44 -10.84 -10.96 l0 -0.08 c0 -6.04 4.28 -11 10.32 -11 c6.72 0 10.04 5.52 10.04 10.4 c0 1.36 -1.04 2.32 -2.28 2.32 l-13.24 0 c0.52 3.44 2.96 5.36 6.08 5.36 c2.04 0 3.64 -0.72 5 -1.84 c0.36 -0.28 0.68 -0.44 1.24 -0.44 c1.08 0 1.92 0.84 1.92 1.96 c0 0.6 -0.28 1.12 -0.64 1.48 z M65.52 46.480000000000004 c-2.96 0 -5.6 -0.64 -8.16 -1.88 c-0.84 -0.32 -1.36 -1 -1.36 -1.92 c0 -1.08 0.92 -2 2.04 -2 c0.36 0 0.64 0.08 0.88 0.2 c1.92 1.08 4.04 1.68 6.48 1.68 c4.32 0 6.68 -2.24 6.68 -6.48 l0 -1.64 c-1.76 2.28 -3.96 3.88 -7.44 3.88 c-4.96 0 -9.6 -3.68 -9.6 -9.88 l0 -0.08 c0 -6.24 4.68 -9.92 9.6 -9.92 c3.56 0 5.76 1.64 7.4 3.6 l0 -1 c0 -1.32 1.08 -2.4 2.4 -2.4 c1.36 0 2.44 1.08 2.44 2.44 l0 14.6 c0 3.56 -0.92 6.2 -2.68 7.96 c-1.92 1.92 -4.88 2.84 -8.68 2.84 z M65.92 34.2 c3.36 0 6.2 -2.36 6.2 -5.8 l0 -0.08 c0 -3.44 -2.84 -5.8 -6.2 -5.8 s-6 2.32 -6 5.8 l0 0.08 c0 3.44 2.68 5.8 6 5.8 z M94.44 40.4 c-1.36 0 -2.28 -0.76 -2.8 -2 l-9.8 -23.04 c-0.16 -0.36 -0.28 -0.72 -0.28 -1.16 c0 -1.32 1.08 -2.4 2.48 -2.4 c1.28 0 2.12 0.72 2.52 1.76 l8.08 20.2 l8.2 -20.36 c0.32 -0.84 1.2 -1.6 2.36 -1.6 c1.36 0 2.44 1.04 2.44 2.36 c0 0.36 -0.12 0.76 -0.24 1.04 l-9.84 23.2 c-0.52 1.24 -1.44 2 -2.84 2 l-0.28 0 z M131.04000000000002 21.08 l0 16.72 c0 1.32 -1.08 2.4 -2.44 2.4 c-1.32 0 -2.44 -1.04 -2.44 -2.4 l0 -1.08 c-1.36 2 -3.32 3.72 -6.6 3.72 c-4.76 0 -7.52 -3.2 -7.52 -8.12 l0 -11.24 c0 -1.36 1.08 -2.44 2.4 -2.44 c1.36 0 2.44 1.08 2.44 2.44 l0 9.8 c0 3.28 1.64 5.12 4.52 5.12 c2.8 0 4.76 -1.92 4.76 -5.2 l0 -9.72 c0 -1.36 1.08 -2.44 2.44 -2.44 c1.32 0 2.44 1.08 2.44 2.44 z M137.36 37.8 l0 -24.8 c0 -1.32 1.04 -2.4 2.4 -2.4 s2.44 1.08 2.44 2.4 l0 24.8 c0 1.36 -1.08 2.4 -2.44 2.4 c-1.32 0 -2.4 -1.04 -2.4 -2.4 z M148.52 37.8 l0 -16.72 c0 -1.36 1.04 -2.44 2.4 -2.44 s2.44 1.08 2.44 2.44 l0 1.04 c1.36 -1.96 3.32 -3.68 6.6 -3.68 c4.76 0 7.52 3.2 7.52 8.08 l0 11.28 c0 1.36 -1.04 2.4 -2.4 2.4 s-2.44 -1.04 -2.44 -2.4 l0 -9.8 c0 -3.28 -1.64 -5.16 -4.52 -5.16 c-2.8 0 -4.76 1.96 -4.76 5.24 l0 9.72 c0 1.36 -1.08 2.4 -2.44 2.4 c-1.32 0 -2.4 -1.04 -2.4 -2.4 z"
       id="path17"
       style="fill:#501616" />
  </g>
</svg>
